:SAMPLES-PER-SECOND 30
:FULLY-SPECIFIED
:DEGREES
366
root  34.72987798 36.51954471 -14.8248252 7.983824253 -1.291605353 3.330613852
lowerback  -7.986189842 -0.1055129915 -0.2550757527
upperback  -3.493386984 0.2725799978 -2.919039965
thorax  0.8847259879 0.2691250145 -2.843100071
lowerneck  -14.93570042 1.92753005 1.456269979
upperneck  17.14550018 1.873579979 3.944610119
head  7.733980179 1.508630037 1.285330176
lclavicle  0 -4.497500157e-015 -2.743230041e-014
lhumerus  -45.40850067 26.36619949 68.6140976
lradius  1.785696099e-006 -6.507048965e-006 30.56349754
lwrist  4.824992743e-007 -3.790274832e-007 -25.57239914
lhand  -4.405300586e-031 -36.72040176 -10.72439957
lfingers  90 7.125020027 -90
lthumb  94.74225044 -25.56571091 100.8814038
rclavicle  0 -4.497500157e-015 -2.743230041e-014
rhumerus  -62.42699814 -42.78639984 -38.39039993
rradius  -5.16745672e-007 2.214343908e-008 35.32260132
rwrist  -0.0001064338358 0.02974390797 -147.0570068
rhand  -1.775242907e-031 5.986219883 -7.881830215
rfingers  -90 -7.125020027 -90
rthumb  -84.88329923 -8.341505645 -58.31643225
rfemur  -10.97886086 15.92800999 14.17658997
rtibia  -1.293733716 0.3168749809 20.61889267
rfoot  -0.01484442689 -19.54240227 -38.90843964
rtoes  4.099939364 19.59211694 -102.066185
lfemur  -7.035410881 -17.56112862 -19.90164375
ltibia  3.071686745 0.08517235518 13.77240562
lfoot  0.5927988887 -25.2133007 35.58779907
ltoes  -8.506763157 -18.16811184 -115.6267749
367
root  34.73212175 36.5200253 -14.82755256 7.982225895 -1.240284562 3.319589138
lowerback  -7.997240067 -0.1223620549 -0.270563513
upperback  -3.495232582 0.2516410053 -2.913569927
thorax  0.8821302056 0.258949995 -2.830490112
lowerneck  -14.92039967 1.926419973 1.463320017
upperneck  17.12509918 1.873430014 3.928790092
head  7.724712849 1.506616235 1.278354287
lclavicle  0 -4.497500157e-015 -2.743230041e-014
lhumerus  -45.45890045 26.45170021 68.5483017
lradius  1.785696099e-006 -6.507048965e-006 30.53370285
lwrist  4.824992743e-007 -3.790274832e-007 -25.7343998
lhand  -4.405300586e-031 -36.72040176 -10.72439957
lfingers  90 7.125020027 -90
lthumb  94.74225044 -25.56571091 100.8814038
rclavicle  0 -4.497500157e-015 -2.743230041e-014
rhumerus  -62.71020126 -42.88869858 -38.40169907
rradius  -5.16745672e-007 2.214343908e-008 35.06090164
rwrist  -0.0001064338358 0.02974390797 -146.8470001
rhand  -1.775242907e-031 5.986219883 -7.881830215
rfingers  -90 -7.125020027 -90
rthumb  -84.88329923 -8.341505645 -58.31643225
rfemur  -10.97228146 15.92709255 14.19283676
rtibia  -1.294946909 0.340515554 20.6091156
rfoot  -0.0145869758 -19.48742104 -38.94757843
rtoes  4.099939364 19.59211694 -102.066185
lfemur  -7.101328373 -17.6030159 -19.8593502
ltibia  3.019109011 0.08399349451 13.86862183
lfoot  0.5887548327 -25.25764275 35.55647659
ltoes  -8.506763157 -18.16811184 -115.6267749
368
root  34.73389393 36.52020252 -14.82919107 7.972464561 -1.167052031 3.309642553
lowerback  -8.002389908 -0.1457860023 -0.2884817421
upperback  -3.496769428 0.2225790024 -2.904690027
thorax  0.8817494512 0.2450039983 -2.813689947
lowerneck  -14.89260006 1.908910036 1.46281004
upperneck  17.1004982 1.854832411 3.902451754
head  7.712409973 1.494089961 1.267089844
lclavicle  0 -4.497500157e-015 -2.743230041e-014
lhumerus  -45.49089813 26.45210075 68.53980255
lradius  1.785696099e-006 -6.507048965e-006 30.53269768
lwrist  4.824992743e-007 -3.790274832e-007 -25.74189949
lhand  -4.405300586e-031 -36.72040176 -10.72439957
lfingers  90 7.125020027 -90
lthumb  94.74225044 -25.56571091 100.8814038
rclavicle  0 -4.497500157e-015 -2.743230041e-014
rhumerus  -63.210495 -43.19530106 -38.06960297
rradius  -5.16745672e-007 2.214343908e-008 34.79919815
rwrist  -0.0001064338358 0.02974390797 -146.3399963
rhand  -1.775242907e-031 5.986219883 -7.881830215
rfingers  -90 -7.125020027 -90
rthumb  -84.88329923 -8.341505645 -58.31643225
rfemur  -10.95908546 15.8931818 14.21330929
rtibia  -1.296948791 0.3637452722 20.61167336
rfoot  -0.01230974216 -19.44612503 -38.96711349
rtoes  4.099939364 19.59211694 -102.066185
lfemur  -7.080553532 -17.66519356 -19.85025787
ltibia  3.02251792 0.08769253641 13.85479736
lfoot  0.5885186791 -25.25650787 35.57247162
ltoes  -8.506763157 -18.16811184 -115.6267749
369
root  34.73465086 36.52044882 -14.83037002 7.961081028 -1.101105332 3.296739817
lowerback  -8.00951004 -0.162533015 -0.294388324
upperback  -3.497780085 0.2014379948 -2.901309967
thorax  0.8845160007 0.2347960025 -2.808700085
lowerneck  -14.90110016 1.899090052 1.433300018
upperneck  17.11510086 1.844639897 3.919739962
head  7.718120098 1.489549994 1.276639938
lclavicle  0 -4.497500157e-015 -2.743230041e-014
lhumerus  -45.51639938 26.51040077 68.51309967
lradius  1.785696099e-006 -6.507048965e-006 30.49639893
lwrist  4.824992743e-007 -3.790274832e-007 -25.85619926
lhand  -4.405300586e-031 -36.72040176 -10.72439957
lfingers  90 7.125020027 -90
lthumb  94.74225044 -25.56571091 100.8814038
rclavicle  0 -4.497500157e-015 -2.743230041e-014
rhumerus  -63.81799698 -43.59479904 -37.6312027
rradius  -5.16745672e-007 2.214343908e-008 34.58309937
rwrist  -0.0001064338358 0.02974390797 -145.9329987
rhand  -1.775242907e-031 5.986219883 -7.881830215
rfingers  -90 -7.125020027 -90
rthumb  -84.88329923 -8.341505645 -58.31643225
rfemur  -10.94372463 15.84664154 14.24094009
rtibia  -1.299740076 0.4075667262 20.62161827
rfoot  -0.008705583401 -19.37607002 -38.95402145
rtoes  4.099939364 19.59211694 -102.066185
lfemur  -7.056114197 -17.71479225 -19.83633995
ltibia  3.024208784 0.09293745458 13.83519173
lfoot  0.584882021 -25.25271225 35.58839035
ltoes  -8.506763157 -18.16811184 -115.6267749
370
root  34.7337077 36.52089637 -14.8331905 7.957012177 -1.03188014 3.3027637
lowerback  -8.026320457 -0.1597369909 -0.2591514587
upperback  -3.497800112 0.2034830004 -2.906450033
thorax  0.8938879967 0.2357369959 -2.833760023
lowerneck  -14.91300011 2.268729925 1.312999964
upperneck  17.11310005 1.695749998 4.015709877
head  7.720739841 1.159790039 1.276929975
lclavicle  0 -4.497500157e-015 -2.743230041e-014
lhumerus  -45.52330017 26.47940063 68.52580261
lradius  1.785696099e-006 -6.507048965e-006 30.47629929
lwrist  4.824992743e-007 -3.790274832e-007 -25.92180061
lhand  -4.405300586e-031 -36.72040176 -10.72439957
lfingers  90 7.125020027 -90
lthumb  94.74225044 -25.56571091 100.8814038
rclavicle  0 -4.497500157e-015 -2.743230041e-014
rhumerus  -64.21900177 -43.82369995 -37.45249939
rradius  -5.16745672e-007 2.214343908e-008 34.51010132
rwrist  -0.0001064338358 0.02974390797 -145.2230072
rhand  -1.775242907e-031 5.986219883 -7.881830215
rfingers  -90 -7.125020027 -90
rthumb  -84.88329923 -8.341505645 -58.31643225
rfemur  -10.94370937 15.83526802 14.25245571
rtibia  -1.310062766 0.4308204949 20.65504074
rfoot  -0.02908172645 -19.34623337 -38.98996735
rtoes  4.099939364 19.59211694 -102.066185
lfemur  -7.045564651 -17.73514748 -19.83755302
ltibia  3.036665201 0.1110868081 13.80648422
lfoot  0.5737847686 -25.27733231 35.55131912
ltoes  -8.506763157 -18.16811184 -115.6267749
